#!OML:ASF F:\VICON\USERDATA\INSTALL\rory3\rory3.ASF
:FULLY-SPECIFIED
:DEGREES
1113
root -8.36655 17.4745 2.49455 -10.5802 102.525 -14.2908
lowerback 5.22169 0.890613 -5.70929
upperback 1.72849 0.944729 1.03864
thorax -1.25034 0.483286 4.22251
lowerneck -14.1601 -0.754936 -6.73335
upperneck 37.8845 4.06567 -2.28631
head 15.8068 1.07625 1.09543
rclavicle 2.0773e-014 5.56597e-015
rhumerus -32.8466 -2.45779 -83.1937
rradius 45.7549
rwrist 20.6555
rhand -22.594 7.28034
rfingers 7.12502
rthumb 3.83519 -22.6649
lclavicle 2.0773e-014 5.56597e-015
lhumerus -32.4243 16.3814 77.5433
lradius 24.3112
lwrist -6.90729
lhand -12.8946 29.0261
lfingers 7.12502
lthumb 13.1948 58.5885
rfemur -37.0697 -12.9803 21.1514
rtibia 28.1407
rfoot -19.1716 -17.1228
rtoes 10.7819
lfemur -1.14024 -0.0411781 -25.8523
ltibia 21.862
lfoot -20.1522 1.57756
ltoes -12.2264
1114
root -8.30247 17.4648 2.49187 -10.8273 102.482 -14.525
lowerback 5.17246 0.858951 -5.70002
upperback 1.75361 0.907377 1.06876
thorax -1.19286 0.462411 4.25177
lowerneck -14.1392 -0.726872 -6.67199
upperneck 37.8512 4.11822 -2.38225
head 15.7884 1.09472 1.05169
rclavicle 3.06128e-014 -7.55382e-015
rhumerus -32.931 -2.39817 -83.1449
rradius 45.6362
rwrist 20.4744
rhand -22.7509 7.08013
rfingers 7.12502
rthumb 3.68366 -22.8678
lclavicle 3.06128e-014 -7.55382e-015
lhumerus -32.2584 16.0894 77.9019
lradius 24.3564
lwrist -7.04303
lhand -12.5579 29.021
lfingers 7.12502
lthumb 13.5194 58.5622
rfemur -37.1009 -12.6815 21.025
rtibia 27.6128
rfoot -19.3067 -17.7723
rtoes 8.80427
lfemur -0.731072 0.0219857 -25.8869
ltibia 21.5798
lfoot -20.1549 1.68756
ltoes -12.4976
1115
root -8.23842 17.4496 2.48803 -11.1003 102.303 -14.8247
lowerback 5.12759 0.84242 -5.64746
upperback 1.73687 0.890118 1.10567
thorax -1.18307 0.453574 4.26194
lowerneck -14.1416 -0.653798 -6.58616
upperneck 37.9025 4.2852 -2.55402
head 15.8209 1.15411 0.992639
rclavicle -4.87022e-015 8.34896e-015
rhumerus -33.0401 -2.19322 -83.1064
rradius 45.5283
rwrist 20.1171
rhand -22.8726 7.01378
rfingers 7.12502
rthumb 3.56613 -22.9361
lclavicle -4.87022e-015 8.34896e-015
lhumerus -32.1818 15.7515 78.2613
lradius 24.4337
lwrist -6.94084
lhand -12.3941 28.8581
lfingers 7.12502
lthumb 13.6772 58.3886
rfemur -37.2035 -12.361 20.9522
rtibia 27.1578
rfoot -19.497 -18.0819
rtoes 8.49186
lfemur -0.32694 -0.00118911 -25.9472
ltibia 21.2115
lfoot -20.0906 2.00017
ltoes -12.8794
1116
root -8.16916 17.4394 2.48274 -11.8968 102.083 -15.6255
lowerback 5.05586 0.922801 -5.57725
upperback 1.76222 1.00463 1.04338
thorax -1.128 0.508761 4.15103
lowerneck -14.3502 -0.675649 -6.71543
upperneck 38.1382 4.29012 -2.39572
head 15.9843 1.15043 1.09032
rclavicle 3.3694e-014 3.18055e-015
rhumerus -33.1205 -2.51662 -82.9999
rradius 45.3878
rwrist 20.1161
rhand -22.834 6.82274
rfingers 7.12502
rthumb 3.60341 -23.1266
lclavicle 3.3694e-014 3.18055e-015
lhumerus -32.0126 15.0857 78.6766
lradius 24.54
lwrist -6.68023
lhand -12.2051 28.6739
lfingers 7.12502
lthumb 13.8593 58.1921
rfemur -37.2473 -11.9319 20.675
rtibia 26.7916
rfoot -19.9155 -18.0331
rtoes 9.73874
lfemur 0.168947 -0.0907144 -26.12
ltibia 20.7799
lfoot -20.1082 2.26982
ltoes -12.309
1117
root -8.09886 17.4305 2.47731 -14.2081 101.827 -17.8889
lowerback 5.03396 1.07917 -5.7781
upperback 1.83835 1.20583 0.884563
thorax -1.06 0.606244 4.08744
lowerneck -14.6216 -0.754295 -6.94322
upperneck 38.3689 4.16417 -2.05717
head 16.1553 1.09896 1.26172
rclavicle -1.38155e-014 7.15625e-015
rhumerus -33.1222 -3.14906 -82.8463
rradius 45.1804
rwrist 20.3481
rhand -22.5647 6.77585
rfingers 7.12502
rthumb 3.8635 -23.1689
lclavicle -1.38155e-014 7.15625e-015
lhumerus -31.7827 14.4481 79.0814
lradius 24.6168
lwrist -6.50587
lhand -12.3741 28.6929
lfingers 7.12502
lthumb 13.6965 58.2222
rfemur -37.2257 -11.4819 20.083
rtibia 26.477
rfoot -19.9525 -17.9846
rtoes 11.283
lfemur 0.773723 -0.0384658 -26.587
ltibia 20.3439
lfoot -20.1492 2.52517
ltoes -11.6706
1118
root -8.02902 17.4147 2.47324 -16.1534 101.686 -19.8317
lowerback 5.01264 1.13315 -5.98659
upperback 1.8648 1.26942 0.798241
thorax -1.02987 0.63659 4.1119
lowerneck -14.6079 -0.743994 -6.99123
upperneck 38.365 4.15367 -1.9679
head 16.1452 1.09965 1.30657
rclavicle -2.11706e-014 1.27222e-014
rhumerus -33.2114 -3.26316 -82.7467
rradius 45.0826
rwrist 20.1496
rhand -22.4558 6.80367
rfingers 7.12502
rthumb 3.96864 -23.1391
lclavicle -2.11706e-014 1.27222e-014
lhumerus -31.6059 13.9749 79.4328
lradius 24.6404
lwrist -6.26073
lhand -12.7548 28.7024
lfingers 7.12502
lthumb 13.3296 58.2561
rfemur -37.314 -11.141 19.5931
rtibia 26.252
rfoot -19.7121 -18.101
rtoes 12.1978
lfemur 1.3519 -0.0476196 -27.0126
ltibia 19.8168
lfoot -20.07 2.92981
ltoes -12.2901
1119
root -7.95546 17.4008 2.47125 -16.5874 101.625 -20.2306
lowerback 5.03769 1.07361 -6.01268
upperback 1.84509 1.18758 0.914424
thorax -1.05758 0.596507 4.25216
lowerneck -14.5333 -0.660476 -7.01772
upperneck 38.3924 4.34638 -2.09252
head 16.1428 1.1629 1.29076
rclavicle -3.39922e-014 -1.47101e-014
rhumerus -33.4215 -2.80755 -82.6037
rradius 45.0835
rwrist 19.6641
rhand -22.5899 6.58854
rfingers 7.12502
rthumb 3.8391 -23.3566
lclavicle -3.39922e-014 -1.47101e-014
lhumerus -31.543 13.8937 79.7945
lradius 24.668
lwrist -6.09834
lhand -12.7441 28.7604
lfingers 7.12502
lthumb 13.3399 58.3134
rfemur -37.372 -10.8606 19.3728
rtibia 26.1035
rfoot -19.5803 -18.3305
rtoes 11.09
lfemur 1.95719 -0.0120102 -27.0872
ltibia 19.2543
lfoot -20.0105 3.26185
ltoes -13.3764
1120
root -7.87951 17.3893 2.46959 -17.4464 101.612 -21.1012
lowerback 5.01533 1.02197 -6.08665
upperback 1.83247 1.11621 0.928569
thorax -1.05114 0.560638 4.31343
lowerneck -14.559 -0.555255 -6.85835
upperneck 38.467 4.52479 -2.21977
head 16.1908 1.24205 1.24068
rclavicle 2.5842e-014 -1.31198e-014
rhumerus -33.5354 -2.75678 -82.4763
rradius 44.9293
rwrist 19.6532
rhand -22.6349 6.59829
rfingers 7.12502
rthumb 3.7957 -23.3477
lclavicle 2.5842e-014 -1.31198e-014
lhumerus -31.4587 13.6076 80.1164
lradius 24.7078
lwrist -5.76887
lhand -12.5225 28.7225
lfingers 7.12502
lthumb 13.5535 58.2614
rfemur -37.4113 -10.4866 18.9622
rtibia 25.9189
rfoot -19.4827 -18.562
rtoes 10.2972
lfemur 2.47051 -0.00321555 -27.2506
ltibia 18.8038
lfoot -20.0219 3.48653
ltoes -14.0484
1121
root -7.80476 17.3754 2.46503 -17.8964 101.569 -21.5951
lowerback 4.93843 0.990097 -5.94793
upperback 1.86445 1.08606 0.888639
thorax -0.968645 0.542711 4.1967
lowerneck -14.5306 -0.456922 -6.65898
upperneck 38.3771 4.62067 -2.30601
head 16.1395 1.30018 1.18266
rclavicle -9.44227e-015 -1.11319e-014
rhumerus -33.4893 -2.94996 -82.3917
rradius 44.7158
rwrist 19.6597
rhand -22.6234 6.72565
rfingers 7.12502
rthumb 3.80674 -23.2201
lclavicle -9.44227e-015 -1.11319e-014
lhumerus -31.2828 13.0712 80.4907
lradius 24.8123
lwrist -5.16317
lhand -12.6855 28.7423
lfingers 7.12502
lthumb 13.3963 58.2916
rfemur -37.4542 -10.1955 18.6686
rtibia 25.6864
rfoot -19.1642 -18.4566
rtoes 12.7289
lfemur 2.91335 -0.0254998 -27.3549
ltibia 18.4497
lfoot -20.0549 3.7799
ltoes -14.7137
1122
root -7.72971 17.3599 2.46021 -18.0953 101.439 -21.8063
lowerback 4.92721 1.01575 -5.73849
upperback 1.8666 1.13067 0.902199
thorax -0.962329 0.565079 4.08994
lowerneck -14.5141 -0.46882 -6.58331
upperneck 38.4152 4.6098 -2.36756
head 16.1596 1.29886 1.14153
rclavicle -3.56818e-014 -2.22639e-014
rhumerus -33.5552 -2.99868 -82.2525
rradius 44.6294
rwrist 19.2569
rhand -22.7063 6.58464
rfingers 7.12502
rthumb 3.72671 -23.3625
lclavicle -3.56818e-014 -2.22639e-014
lhumerus -31.111 12.564 80.9407
lradius 24.8665
lwrist -4.74131
lhand -13.3863 29.0203
lfingers 7.12502
lthumb 12.7208 58.6128
rfemur -37.4598 -9.84173 18.4573
rtibia 25.4864
rfoot -18.84 -18.1414
rtoes 15.5618
lfemur 3.39073 -0.0205512 -27.3796
ltibia 18.1
lfoot -20.0675 4.18499
ltoes -15.5434
1123
root -7.65099 17.3516 2.45774 -17.1768 101.314 -20.8741
lowerback 4.93806 1.0149 -5.38213
upperback 1.83948 1.14545 1.01937
thorax -0.994632 0.574142 4.00916
lowerneck -14.5051 -0.43947 -6.42244
upperneck 38.4254 4.66403 -2.51298
head 16.1707 1.32626 1.06016
rclavicle -4.91992e-014 2.8625e-014
rhumerus -33.6215 -3.34775 -81.9886
rradius 44.4801
rwrist 19.0584
rhand -22.5657 6.56894
rfingers 7.12502
rthumb 3.86254 -23.3758
lclavicle -4.91992e-014 2.8625e-014
lhumerus -30.9127 12.2676 81.3795
lradius 24.7229
lwrist -4.49422
lhand -13.9247 29.198
lfingers 7.12502
lthumb 12.2018 58.8221
rfemur -37.3713 -9.38715 18.3847
rtibia 25.3157
rfoot -18.9323 -17.9839
rtoes 16.2628
lfemur 3.83632 0.0532131 -27.1046
ltibia 17.7806
lfoot -20.1261 4.28936
ltoes -15.9307
1124
root -7.57107 17.3469 2.45658 -16.6334 101.296 -20.3675
lowerback 4.95055 0.940292 -5.24391
upperback 1.78029 1.05139 1.16987
thorax -1.05313 0.52954 4.09262
lowerneck -14.4733 -0.357026 -6.25535
upperneck 38.4329 4.81577 -2.70715
head 16.1761 1.38937 0.973162
rclavicle -1.15295e-014 2.38542e-015
rhumerus -33.6705 -3.68235 -81.6362
rradius 44.2656
rwrist 19.0351
rhand -22.1719 7.083
rfingers 7.12502
rthumb 4.24282 -22.8545
lclavicle -1.15295e-014 2.38542e-015
lhumerus -30.7366 12.1578 81.7743
lradius 24.4931
lwrist -4.32632
lhand -14.0836 29.0367
lfingers 7.12502
lthumb 12.0485 58.6698
rfemur -37.3203 -8.85491 18.1272
rtibia 25.2182
rfoot -19.0648 -18.1369
rtoes 15.9823
lfemur 4.23092 -0.118595 -26.9724
ltibia 17.4611
lfoot -20.1408 4.40933
ltoes -15.7711
1125
root -7.48932 17.3435 2.45564 -16.5827 101.281 -20.3931
lowerback 4.92593 0.885732 -5.1884
upperback 1.71188 0.981241 1.27024
thorax -1.1033 0.496686 4.16974
lowerneck -14.3975 -0.320757 -6.14057
upperneck 38.4596 4.88262 -2.82335
head 16.178 1.42128 0.914042
rclavicle 4.63168e-014 7.15625e-015
rhumerus -33.7439 -3.95184 -81.3307
rradius 44.0612
rwrist 19.096
rhand -21.8612 7.28883
rfingers 7.12502
rthumb 4.54282 -22.6425
lclavicle 4.63168e-014 7.15625e-015
lhumerus -30.6721 12.1465 82.0003
lradius 24.4223
lwrist -4.57611
lhand -13.8777 28.7902
lfingers 7.12502
lthumb 12.247 58.4116
rfemur -37.3373 -8.32116 17.763
rtibia 25.2555
rfoot -19.0398 -18.1992
rtoes 16.6985
lfemur 4.62989 -0.386076 -26.9721
ltibia 17.0737
lfoot -20.0713 4.5978
ltoes -15.5038
1126
root -7.40456 17.3319 2.45399 -17.0507 101.266 -20.9708
lowerback 4.85112 0.857683 -5.1043
upperback 1.65972 0.949184 1.25825
thorax -1.11058 0.481458 4.11214
lowerneck -14.3354 -0.311626 -5.96369
upperneck 38.4743 4.8777 -2.92489
head 16.1775 1.43316 0.837622
rclavicle -1.07344e-014 2.38542e-014
rhumerus -33.8316 -4.20293 -81.1751
rradius 43.9182
rwrist 19.0387
rhand -21.8018 7.35268
rfingers 7.12502
rthumb 4.60019 -22.5774
lclavicle -1.07344e-014 2.38542e-014
lhumerus -30.5797 11.8409 82.2063
lradius 24.4458
lwrist -4.66463
lhand -13.6571 28.6448
lfingers 7.12502
lthumb 12.4597 58.2534
rfemur -37.4795 -8.21026 17.5225
rtibia 25.4452
rfoot -18.5499 -17.8492
rtoes 16.4717
lfemur 5.0735 -0.564571 -27.0854
ltibia 16.6033
lfoot -19.9129 4.8112
ltoes -15.8349
1127
root -7.31805 17.3186 2.45644 -17.5667 101.244 -21.552
lowerback 4.83625 0.794194 -5.11835
upperback 1.63093 0.864252 1.30266
thorax -1.12356 0.439687 4.17142
lowerneck -14.2726 -0.254372 -5.92935
upperneck 38.4451 4.93267 -2.9101
head 16.1451 1.46451 0.846034
rclavicle -4.37326e-015 -9.54166e-015
rhumerus -33.8399 -4.40583 -80.9911
rradius 43.7566
rwrist 19.1536
rhand -21.7985 7.49628
rfingers 7.12502
rthumb 4.60337 -22.4337
lclavicle -4.37326e-015 -9.54166e-015
lhumerus -30.5046 11.8368 82.4662
lradius 24.486
lwrist -4.82441
lhand -13.6742 28.8242
lfingers 7.12502
lthumb 12.4432 58.4338
rfemur -37.6241 -8.30875 17.427
rtibia 25.7435
rfoot -17.7741 -17.4473
rtoes 15.9296
lfemur 5.5696 -0.647547 -27.1657
ltibia 16.1567
lfoot -19.8326 5.00689
ltoes -16.3754
